<mxfile host="Electron" agent="Mozilla/5.0 (Windows NT 10.0; Win64; x64) AppleWebKit/537.36 (KHTML, like Gecko) draw.io/27.0.9 Chrome/134.0.6998.205 Electron/35.4.0 Safari/537.36" version="27.0.9">
  <diagram name="PÃ¡gina-1" id="6M8jZJM8SSEb0cVScsyy">
    <mxGraphModel dx="1426" dy="889" grid="1" gridSize="10" guides="1" tooltips="1" connect="1" arrows="1" fold="1" page="1" pageScale="1" pageWidth="1169" pageHeight="827" math="0" shadow="0">
      <root>
        <mxCell id="0" />
        <mxCell id="1" parent="0" />
        <mxCell id="doyM2j3rQxWbV_fFkolo-1" value="Estudiantes" style="whiteSpace=wrap;html=1;align=center;fillColor=#e1d5e7;strokeColor=#9673a6;" parent="1" vertex="1">
          <mxGeometry x="130" y="90" width="70" height="40" as="geometry" />
        </mxCell>
        <mxCell id="doyM2j3rQxWbV_fFkolo-2" value="idEstudiante" style="ellipse;whiteSpace=wrap;html=1;align=center;fontStyle=4;fillColor=#e1d5e7;strokeColor=#9673a6;" parent="1" vertex="1">
          <mxGeometry x="20" y="20" width="80" height="40" as="geometry" />
        </mxCell>
        <mxCell id="doyM2j3rQxWbV_fFkolo-3" value="nombre" style="ellipse;whiteSpace=wrap;html=1;align=center;fillColor=#e1d5e7;strokeColor=#9673a6;" parent="1" vertex="1">
          <mxGeometry x="110" y="20" width="50" height="40" as="geometry" />
        </mxCell>
        <mxCell id="doyM2j3rQxWbV_fFkolo-4" value="aPaterno" style="ellipse;whiteSpace=wrap;html=1;align=center;fillColor=#e1d5e7;strokeColor=#9673a6;" parent="1" vertex="1">
          <mxGeometry x="170" y="20" width="60" height="40" as="geometry" />
        </mxCell>
        <mxCell id="doyM2j3rQxWbV_fFkolo-5" value="aMaterno" style="ellipse;whiteSpace=wrap;html=1;align=center;fillColor=#e1d5e7;strokeColor=#9673a6;" parent="1" vertex="1">
          <mxGeometry x="240" y="20" width="60" height="40" as="geometry" />
        </mxCell>
        <mxCell id="doyM2j3rQxWbV_fFkolo-6" value="grado" style="ellipse;whiteSpace=wrap;html=1;align=center;fillColor=#e1d5e7;strokeColor=#9673a6;" parent="1" vertex="1">
          <mxGeometry x="30" y="130" width="40" height="40" as="geometry" />
        </mxCell>
        <mxCell id="doyM2j3rQxWbV_fFkolo-7" value="grupo" style="ellipse;whiteSpace=wrap;html=1;align=center;fillColor=#e1d5e7;strokeColor=#9673a6;" parent="1" vertex="1">
          <mxGeometry x="30" y="80" width="40" height="40" as="geometry" />
        </mxCell>
        <mxCell id="doyM2j3rQxWbV_fFkolo-16" value="" style="endArrow=none;html=1;rounded=0;entryX=0.5;entryY=1;entryDx=0;entryDy=0;exitX=0.5;exitY=0;exitDx=0;exitDy=0;edgeStyle=orthogonalEdgeStyle;fillColor=#e1d5e7;strokeColor=#9673a6;" parent="1" source="doyM2j3rQxWbV_fFkolo-1" target="doyM2j3rQxWbV_fFkolo-2" edge="1">
          <mxGeometry width="50" height="50" relative="1" as="geometry">
            <mxPoint x="110" y="110" as="sourcePoint" />
            <mxPoint x="160" y="60" as="targetPoint" />
            <Array as="points">
              <mxPoint x="170" y="70" />
              <mxPoint x="60" y="70" />
            </Array>
          </mxGeometry>
        </mxCell>
        <mxCell id="doyM2j3rQxWbV_fFkolo-18" value="" style="endArrow=none;html=1;rounded=0;entryX=0.5;entryY=1;entryDx=0;entryDy=0;exitX=0.5;exitY=0;exitDx=0;exitDy=0;edgeStyle=orthogonalEdgeStyle;fillColor=#e1d5e7;strokeColor=#9673a6;" parent="1" source="doyM2j3rQxWbV_fFkolo-1" target="doyM2j3rQxWbV_fFkolo-3" edge="1">
          <mxGeometry width="50" height="50" relative="1" as="geometry">
            <mxPoint x="220" y="100" as="sourcePoint" />
            <mxPoint x="110" y="70" as="targetPoint" />
            <Array as="points">
              <mxPoint x="170" y="70" />
              <mxPoint x="135" y="70" />
            </Array>
          </mxGeometry>
        </mxCell>
        <mxCell id="doyM2j3rQxWbV_fFkolo-19" value="" style="endArrow=none;html=1;rounded=0;entryX=0.5;entryY=1;entryDx=0;entryDy=0;exitX=0.5;exitY=0;exitDx=0;exitDy=0;edgeStyle=orthogonalEdgeStyle;fillColor=#e1d5e7;strokeColor=#9673a6;" parent="1" source="doyM2j3rQxWbV_fFkolo-1" target="doyM2j3rQxWbV_fFkolo-4" edge="1">
          <mxGeometry width="50" height="50" relative="1" as="geometry">
            <mxPoint x="300" y="110" as="sourcePoint" />
            <mxPoint x="190" y="80" as="targetPoint" />
            <Array as="points">
              <mxPoint x="170" y="70" />
              <mxPoint x="200" y="70" />
            </Array>
          </mxGeometry>
        </mxCell>
        <mxCell id="doyM2j3rQxWbV_fFkolo-20" value="" style="endArrow=none;html=1;rounded=0;exitX=0.5;exitY=1;exitDx=0;exitDy=0;edgeStyle=orthogonalEdgeStyle;entryX=0.5;entryY=0;entryDx=0;entryDy=0;fillColor=#e1d5e7;strokeColor=#9673a6;" parent="1" source="doyM2j3rQxWbV_fFkolo-5" target="doyM2j3rQxWbV_fFkolo-1" edge="1">
          <mxGeometry width="50" height="50" relative="1" as="geometry">
            <mxPoint x="270" y="110" as="sourcePoint" />
            <mxPoint x="170" y="90" as="targetPoint" />
            <Array as="points">
              <mxPoint x="270" y="70" />
              <mxPoint x="170" y="70" />
            </Array>
          </mxGeometry>
        </mxCell>
        <mxCell id="doyM2j3rQxWbV_fFkolo-21" value="" style="endArrow=none;html=1;rounded=0;entryX=1;entryY=0.5;entryDx=0;entryDy=0;exitX=0;exitY=0.5;exitDx=0;exitDy=0;edgeStyle=orthogonalEdgeStyle;fillColor=#e1d5e7;strokeColor=#9673a6;" parent="1" source="doyM2j3rQxWbV_fFkolo-1" target="doyM2j3rQxWbV_fFkolo-7" edge="1">
          <mxGeometry width="50" height="50" relative="1" as="geometry">
            <mxPoint x="220" y="110" as="sourcePoint" />
            <mxPoint x="110" y="80" as="targetPoint" />
          </mxGeometry>
        </mxCell>
        <mxCell id="doyM2j3rQxWbV_fFkolo-22" value="" style="endArrow=none;html=1;rounded=0;entryX=1;entryY=0.5;entryDx=0;entryDy=0;exitX=0;exitY=0.5;exitDx=0;exitDy=0;edgeStyle=orthogonalEdgeStyle;fillColor=#e1d5e7;strokeColor=#9673a6;" parent="1" source="doyM2j3rQxWbV_fFkolo-1" target="doyM2j3rQxWbV_fFkolo-6" edge="1">
          <mxGeometry width="50" height="50" relative="1" as="geometry">
            <mxPoint x="200" y="160" as="sourcePoint" />
            <mxPoint x="90" y="130" as="targetPoint" />
          </mxGeometry>
        </mxCell>
        <mxCell id="doyM2j3rQxWbV_fFkolo-23" value="Autorizaciones" style="whiteSpace=wrap;html=1;align=center;fillColor=#d5e8d4;strokeColor=#82b366;" parent="1" vertex="1">
          <mxGeometry x="492.5" y="115" width="85" height="40" as="geometry" />
        </mxCell>
        <mxCell id="doyM2j3rQxWbV_fFkolo-24" value="idAutorizacion" style="ellipse;whiteSpace=wrap;html=1;align=center;fontStyle=4;fillColor=#d5e8d4;strokeColor=#82b366;" parent="1" vertex="1">
          <mxGeometry x="380" y="45" width="90" height="40" as="geometry" />
        </mxCell>
        <mxCell id="doyM2j3rQxWbV_fFkolo-25" value="fechaAutorizacion" style="ellipse;whiteSpace=wrap;html=1;align=center;fillColor=#d5e8d4;strokeColor=#82b366;" parent="1" vertex="1">
          <mxGeometry x="480" y="45" width="110" height="40" as="geometry" />
        </mxCell>
        <mxCell id="doyM2j3rQxWbV_fFkolo-26" value="nombreTutor" style="ellipse;whiteSpace=wrap;html=1;align=center;fillColor=#d5e8d4;strokeColor=#82b366;" parent="1" vertex="1">
          <mxGeometry x="600" y="45" width="80" height="40" as="geometry" />
        </mxCell>
        <mxCell id="doyM2j3rQxWbV_fFkolo-28" value="comentarios" style="ellipse;whiteSpace=wrap;html=1;align=center;fillColor=#d5e8d4;strokeColor=#82b366;" parent="1" vertex="1">
          <mxGeometry x="615" y="115" width="80" height="40" as="geometry" />
        </mxCell>
        <mxCell id="doyM2j3rQxWbV_fFkolo-30" value="" style="endArrow=none;html=1;rounded=0;entryX=0.5;entryY=1;entryDx=0;entryDy=0;exitX=0.5;exitY=0;exitDx=0;exitDy=0;edgeStyle=orthogonalEdgeStyle;fillColor=#d5e8d4;strokeColor=#82b366;" parent="1" source="doyM2j3rQxWbV_fFkolo-23" target="doyM2j3rQxWbV_fFkolo-24" edge="1">
          <mxGeometry width="50" height="50" relative="1" as="geometry">
            <mxPoint x="500" y="105" as="sourcePoint" />
            <mxPoint x="440" y="135" as="targetPoint" />
          </mxGeometry>
        </mxCell>
        <mxCell id="doyM2j3rQxWbV_fFkolo-31" value="" style="endArrow=none;html=1;rounded=0;entryX=0.5;entryY=1;entryDx=0;entryDy=0;exitX=0.5;exitY=0;exitDx=0;exitDy=0;edgeStyle=orthogonalEdgeStyle;fillColor=#d5e8d4;strokeColor=#82b366;" parent="1" source="doyM2j3rQxWbV_fFkolo-23" target="doyM2j3rQxWbV_fFkolo-25" edge="1">
          <mxGeometry width="50" height="50" relative="1" as="geometry">
            <mxPoint x="620" y="205" as="sourcePoint" />
            <mxPoint x="560" y="235" as="targetPoint" />
          </mxGeometry>
        </mxCell>
        <mxCell id="doyM2j3rQxWbV_fFkolo-32" value="" style="endArrow=none;html=1;rounded=0;entryX=0.5;entryY=1;entryDx=0;entryDy=0;exitX=0.5;exitY=0;exitDx=0;exitDy=0;edgeStyle=orthogonalEdgeStyle;fillColor=#d5e8d4;strokeColor=#82b366;" parent="1" source="doyM2j3rQxWbV_fFkolo-23" target="doyM2j3rQxWbV_fFkolo-26" edge="1">
          <mxGeometry width="50" height="50" relative="1" as="geometry">
            <mxPoint x="660" y="115" as="sourcePoint" />
            <mxPoint x="600" y="145" as="targetPoint" />
          </mxGeometry>
        </mxCell>
        <mxCell id="doyM2j3rQxWbV_fFkolo-33" value="" style="endArrow=none;html=1;rounded=0;entryX=1;entryY=0.5;entryDx=0;entryDy=0;exitX=0;exitY=0.5;exitDx=0;exitDy=0;edgeStyle=orthogonalEdgeStyle;fillColor=#d5e8d4;strokeColor=#82b366;" parent="1" source="doyM2j3rQxWbV_fFkolo-28" target="doyM2j3rQxWbV_fFkolo-23" edge="1">
          <mxGeometry width="50" height="50" relative="1" as="geometry">
            <mxPoint x="640" y="115" as="sourcePoint" />
            <mxPoint x="580" y="145" as="targetPoint" />
          </mxGeometry>
        </mxCell>
        <mxCell id="doyM2j3rQxWbV_fFkolo-34" value="" style="endArrow=none;html=1;rounded=0;entryX=1;entryY=0.5;entryDx=0;entryDy=0;exitX=0;exitY=0.5;exitDx=0;exitDy=0;edgeStyle=orthogonalEdgeStyle;fillColor=#d5e8d4;strokeColor=#82b366;" parent="1" source="doyM2j3rQxWbV_fFkolo-23" target="doyM2j3rQxWbV_fFkolo-36" edge="1">
          <mxGeometry width="50" height="50" relative="1" as="geometry">
            <mxPoint x="490" y="135" as="sourcePoint" />
            <mxPoint x="460" y="125" as="targetPoint" />
          </mxGeometry>
        </mxCell>
        <mxCell id="doyM2j3rQxWbV_fFkolo-36" value="telefonoTutor" style="ellipse;shape=doubleEllipse;margin=3;whiteSpace=wrap;html=1;align=center;fillColor=#d5e8d4;strokeColor=#82b366;" parent="1" vertex="1">
          <mxGeometry x="370" y="115" width="90" height="40" as="geometry" />
        </mxCell>
        <mxCell id="doyM2j3rQxWbV_fFkolo-37" value="&lt;span style=&quot;border-bottom: 1px dotted&quot;&gt;idAutorizacion&lt;/span&gt;" style="ellipse;whiteSpace=wrap;html=1;align=center;fillColor=#e1d5e7;strokeColor=#9673a6;" parent="1" vertex="1">
          <mxGeometry x="230" y="90" width="90" height="40" as="geometry" />
        </mxCell>
        <mxCell id="doyM2j3rQxWbV_fFkolo-38" value="" style="endArrow=none;html=1;rounded=0;entryX=1;entryY=0.5;entryDx=0;entryDy=0;exitX=0;exitY=0.5;exitDx=0;exitDy=0;edgeStyle=orthogonalEdgeStyle;fillColor=#e1d5e7;strokeColor=#9673a6;" parent="1" source="doyM2j3rQxWbV_fFkolo-37" target="doyM2j3rQxWbV_fFkolo-1" edge="1">
          <mxGeometry width="50" height="50" relative="1" as="geometry">
            <mxPoint x="310" y="150" as="sourcePoint" />
            <mxPoint x="250" y="180" as="targetPoint" />
          </mxGeometry>
        </mxCell>
        <mxCell id="doyM2j3rQxWbV_fFkolo-39" value="1:1" style="shape=rhombus;perimeter=rhombusPerimeter;whiteSpace=wrap;html=1;align=center;" parent="1" vertex="1">
          <mxGeometry x="288.75" y="210" width="50" height="40" as="geometry" />
        </mxCell>
        <mxCell id="doyM2j3rQxWbV_fFkolo-42" value="" style="edgeStyle=orthogonalEdgeStyle;fontSize=12;html=1;endArrow=ERmandOne;rounded=0;exitX=0;exitY=0.5;exitDx=0;exitDy=0;entryX=0.75;entryY=1;entryDx=0;entryDy=0;fillColor=#e1d5e7;strokeColor=#9673a6;" parent="1" source="doyM2j3rQxWbV_fFkolo-39" target="doyM2j3rQxWbV_fFkolo-1" edge="1">
          <mxGeometry width="100" height="100" relative="1" as="geometry">
            <mxPoint x="320" y="180" as="sourcePoint" />
            <mxPoint x="220" y="200" as="targetPoint" />
          </mxGeometry>
        </mxCell>
        <mxCell id="doyM2j3rQxWbV_fFkolo-43" value="" style="edgeStyle=orthogonalEdgeStyle;fontSize=12;html=1;endArrow=ERmandOne;rounded=0;exitX=0.5;exitY=0;exitDx=0;exitDy=0;entryX=0.5;entryY=1;entryDx=0;entryDy=0;fillColor=#d5e8d4;strokeColor=#82b366;" parent="1" source="doyM2j3rQxWbV_fFkolo-39" target="doyM2j3rQxWbV_fFkolo-23" edge="1">
          <mxGeometry width="100" height="100" relative="1" as="geometry">
            <mxPoint x="330" y="200" as="sourcePoint" />
            <mxPoint x="220" y="170" as="targetPoint" />
          </mxGeometry>
        </mxCell>
        <mxCell id="doyM2j3rQxWbV_fFkolo-44" value="Pagos" style="whiteSpace=wrap;html=1;align=center;fillColor=#fff2cc;strokeColor=#d6b656;" parent="1" vertex="1">
          <mxGeometry x="127.5" y="385" width="50" height="40" as="geometry" />
        </mxCell>
        <mxCell id="doyM2j3rQxWbV_fFkolo-45" value="idPago" style="ellipse;whiteSpace=wrap;html=1;align=center;fontStyle=4;fillColor=#fff2cc;strokeColor=#d6b656;" parent="1" vertex="1">
          <mxGeometry x="32.5" y="455" width="50" height="40" as="geometry" />
        </mxCell>
        <mxCell id="doyM2j3rQxWbV_fFkolo-47" value="&lt;span style=&quot;border-bottom: 1px dotted&quot;&gt;idEstudiante&lt;/span&gt;" style="ellipse;whiteSpace=wrap;html=1;align=center;fillColor=#fff2cc;strokeColor=#d6b656;" parent="1" vertex="1">
          <mxGeometry x="92.5" y="465" width="80" height="40" as="geometry" />
        </mxCell>
        <mxCell id="doyM2j3rQxWbV_fFkolo-48" value="fechaPago" style="ellipse;whiteSpace=wrap;html=1;align=center;fillColor=#fff2cc;strokeColor=#d6b656;" parent="1" vertex="1">
          <mxGeometry x="177.5" y="465" width="70" height="40" as="geometry" />
        </mxCell>
        <mxCell id="doyM2j3rQxWbV_fFkolo-49" value="monto" style="ellipse;whiteSpace=wrap;html=1;align=center;fillColor=#fff2cc;strokeColor=#d6b656;" parent="1" vertex="1">
          <mxGeometry x="267.5" y="435" width="50" height="40" as="geometry" />
        </mxCell>
        <mxCell id="doyM2j3rQxWbV_fFkolo-51" value="estadoPago" style="ellipse;whiteSpace=wrap;html=1;align=center;fillColor=#fff2cc;strokeColor=#d6b656;" parent="1" vertex="1">
          <mxGeometry x="245" y="385" width="75" height="40" as="geometry" />
        </mxCell>
        <mxCell id="doyM2j3rQxWbV_fFkolo-52" value="1:1" style="shape=rhombus;perimeter=rhombusPerimeter;whiteSpace=wrap;html=1;align=center;" parent="1" vertex="1">
          <mxGeometry x="100" y="270" width="50" height="40" as="geometry" />
        </mxCell>
        <mxCell id="doyM2j3rQxWbV_fFkolo-53" value="" style="endArrow=none;html=1;rounded=0;entryX=0.5;entryY=0;entryDx=0;entryDy=0;exitX=0;exitY=0.5;exitDx=0;exitDy=0;edgeStyle=orthogonalEdgeStyle;fillColor=#fff2cc;strokeColor=#d6b656;" parent="1" source="doyM2j3rQxWbV_fFkolo-44" target="doyM2j3rQxWbV_fFkolo-45" edge="1">
          <mxGeometry width="50" height="50" relative="1" as="geometry">
            <mxPoint x="247.5" y="405" as="sourcePoint" />
            <mxPoint x="217.5" y="415" as="targetPoint" />
          </mxGeometry>
        </mxCell>
        <mxCell id="doyM2j3rQxWbV_fFkolo-54" value="" style="endArrow=none;html=1;rounded=0;entryX=0.5;entryY=0;entryDx=0;entryDy=0;exitX=0.5;exitY=1;exitDx=0;exitDy=0;edgeStyle=orthogonalEdgeStyle;fillColor=#fff2cc;strokeColor=#d6b656;" parent="1" source="doyM2j3rQxWbV_fFkolo-44" target="doyM2j3rQxWbV_fFkolo-47" edge="1">
          <mxGeometry width="50" height="50" relative="1" as="geometry">
            <mxPoint x="257.5" y="365" as="sourcePoint" />
            <mxPoint x="227.5" y="375" as="targetPoint" />
          </mxGeometry>
        </mxCell>
        <mxCell id="doyM2j3rQxWbV_fFkolo-55" value="" style="endArrow=none;html=1;rounded=0;entryX=0.5;entryY=0;entryDx=0;entryDy=0;exitX=0.5;exitY=1;exitDx=0;exitDy=0;edgeStyle=orthogonalEdgeStyle;fillColor=#fff2cc;strokeColor=#d6b656;" parent="1" source="doyM2j3rQxWbV_fFkolo-44" target="doyM2j3rQxWbV_fFkolo-48" edge="1">
          <mxGeometry width="50" height="50" relative="1" as="geometry">
            <mxPoint x="157.5" y="415" as="sourcePoint" />
            <mxPoint x="127.5" y="425" as="targetPoint" />
          </mxGeometry>
        </mxCell>
        <mxCell id="doyM2j3rQxWbV_fFkolo-56" value="" style="endArrow=none;html=1;rounded=0;entryX=0;entryY=0.5;entryDx=0;entryDy=0;exitX=1;exitY=0.5;exitDx=0;exitDy=0;edgeStyle=orthogonalEdgeStyle;fillColor=#fff2cc;strokeColor=#d6b656;" parent="1" source="doyM2j3rQxWbV_fFkolo-44" target="doyM2j3rQxWbV_fFkolo-49" edge="1">
          <mxGeometry width="50" height="50" relative="1" as="geometry">
            <mxPoint x="207.5" y="425" as="sourcePoint" />
            <mxPoint x="177.5" y="435" as="targetPoint" />
          </mxGeometry>
        </mxCell>
        <mxCell id="doyM2j3rQxWbV_fFkolo-57" value="" style="endArrow=none;html=1;rounded=0;entryX=0;entryY=0.5;entryDx=0;entryDy=0;exitX=1;exitY=0.5;exitDx=0;exitDy=0;edgeStyle=orthogonalEdgeStyle;fillColor=#fff2cc;strokeColor=#d6b656;" parent="1" source="doyM2j3rQxWbV_fFkolo-44" target="doyM2j3rQxWbV_fFkolo-51" edge="1">
          <mxGeometry width="50" height="50" relative="1" as="geometry">
            <mxPoint x="227.5" y="435" as="sourcePoint" />
            <mxPoint x="197.5" y="445" as="targetPoint" />
          </mxGeometry>
        </mxCell>
        <mxCell id="doyM2j3rQxWbV_fFkolo-58" value="" style="edgeStyle=orthogonalEdgeStyle;fontSize=12;html=1;endArrow=ERmandOne;rounded=0;exitX=0.5;exitY=0;exitDx=0;exitDy=0;entryX=0.25;entryY=1;entryDx=0;entryDy=0;fillColor=#e1d5e7;strokeColor=#9673a6;" parent="1" source="doyM2j3rQxWbV_fFkolo-52" target="doyM2j3rQxWbV_fFkolo-1" edge="1">
          <mxGeometry width="100" height="100" relative="1" as="geometry">
            <mxPoint x="397" y="190" as="sourcePoint" />
            <mxPoint x="270" y="160" as="targetPoint" />
          </mxGeometry>
        </mxCell>
        <mxCell id="doyM2j3rQxWbV_fFkolo-59" value="" style="edgeStyle=orthogonalEdgeStyle;fontSize=12;html=1;endArrow=ERmandOne;rounded=0;exitX=0.5;exitY=1;exitDx=0;exitDy=0;entryX=0.25;entryY=0;entryDx=0;entryDy=0;fillColor=#fff2cc;strokeColor=#d6b656;" parent="1" source="doyM2j3rQxWbV_fFkolo-52" target="doyM2j3rQxWbV_fFkolo-44" edge="1">
          <mxGeometry width="100" height="100" relative="1" as="geometry">
            <mxPoint x="497" y="220" as="sourcePoint" />
            <mxPoint x="370" y="190" as="targetPoint" />
          </mxGeometry>
        </mxCell>
        <mxCell id="doyM2j3rQxWbV_fFkolo-60" value="Docentes" style="whiteSpace=wrap;html=1;align=center;fillColor=#dae8fc;strokeColor=#6c8ebf;" parent="1" vertex="1">
          <mxGeometry x="831.25" y="110" width="80" height="40" as="geometry" />
        </mxCell>
        <mxCell id="doyM2j3rQxWbV_fFkolo-61" value="idDocente" style="ellipse;whiteSpace=wrap;html=1;align=center;fontStyle=4;fillColor=#dae8fc;strokeColor=#6c8ebf;" parent="1" vertex="1">
          <mxGeometry x="731.25" y="40" width="70" height="40" as="geometry" />
        </mxCell>
        <mxCell id="doyM2j3rQxWbV_fFkolo-62" value="nombre" style="ellipse;whiteSpace=wrap;html=1;align=center;fillColor=#dae8fc;strokeColor=#6c8ebf;" parent="1" vertex="1">
          <mxGeometry x="811.25" y="40" width="60" height="40" as="geometry" />
        </mxCell>
        <mxCell id="doyM2j3rQxWbV_fFkolo-63" value="aPaterno" style="ellipse;whiteSpace=wrap;html=1;align=center;fillColor=#dae8fc;strokeColor=#6c8ebf;" parent="1" vertex="1">
          <mxGeometry x="881.25" y="40" width="60" height="40" as="geometry" />
        </mxCell>
        <mxCell id="doyM2j3rQxWbV_fFkolo-64" value="aM&lt;span style=&quot;background-color: transparent; color: light-dark(rgb(0, 0, 0), rgb(255, 255, 255));&quot;&gt;aterno&lt;/span&gt;" style="ellipse;whiteSpace=wrap;html=1;align=center;fillColor=#dae8fc;strokeColor=#6c8ebf;" parent="1" vertex="1">
          <mxGeometry x="951.25" y="40" width="60" height="40" as="geometry" />
        </mxCell>
        <mxCell id="doyM2j3rQxWbV_fFkolo-65" value="especialidad" style="ellipse;whiteSpace=wrap;html=1;align=center;fillColor=#dae8fc;strokeColor=#6c8ebf;" parent="1" vertex="1">
          <mxGeometry x="731.25" y="110" width="80" height="40" as="geometry" />
        </mxCell>
        <mxCell id="doyM2j3rQxWbV_fFkolo-67" value="telefono" style="ellipse;shape=doubleEllipse;margin=3;whiteSpace=wrap;html=1;align=center;fillColor=#dae8fc;strokeColor=#6c8ebf;" parent="1" vertex="1">
          <mxGeometry x="931.25" y="110" width="70" height="40" as="geometry" />
        </mxCell>
        <mxCell id="doyM2j3rQxWbV_fFkolo-68" value="" style="endArrow=none;html=1;rounded=0;entryX=0.5;entryY=1;entryDx=0;entryDy=0;exitX=0.5;exitY=0;exitDx=0;exitDy=0;edgeStyle=orthogonalEdgeStyle;fillColor=#dae8fc;strokeColor=#6c8ebf;" parent="1" source="doyM2j3rQxWbV_fFkolo-60" target="doyM2j3rQxWbV_fFkolo-61" edge="1">
          <mxGeometry width="50" height="50" relative="1" as="geometry">
            <mxPoint x="601.25" y="120" as="sourcePoint" />
            <mxPoint x="706.25" y="90" as="targetPoint" />
          </mxGeometry>
        </mxCell>
        <mxCell id="doyM2j3rQxWbV_fFkolo-69" value="" style="endArrow=none;html=1;rounded=0;entryX=0.5;entryY=1;entryDx=0;entryDy=0;exitX=0.5;exitY=0;exitDx=0;exitDy=0;edgeStyle=orthogonalEdgeStyle;fillColor=#dae8fc;strokeColor=#6c8ebf;" parent="1" source="doyM2j3rQxWbV_fFkolo-60" target="doyM2j3rQxWbV_fFkolo-64" edge="1">
          <mxGeometry width="50" height="50" relative="1" as="geometry">
            <mxPoint x="871.25" y="140" as="sourcePoint" />
            <mxPoint x="976.25" y="110" as="targetPoint" />
          </mxGeometry>
        </mxCell>
        <mxCell id="doyM2j3rQxWbV_fFkolo-70" value="" style="endArrow=none;html=1;rounded=0;entryX=0.5;entryY=1;entryDx=0;entryDy=0;exitX=0.5;exitY=0;exitDx=0;exitDy=0;edgeStyle=orthogonalEdgeStyle;fillColor=#dae8fc;strokeColor=#6c8ebf;" parent="1" source="doyM2j3rQxWbV_fFkolo-60" target="doyM2j3rQxWbV_fFkolo-63" edge="1">
          <mxGeometry width="50" height="50" relative="1" as="geometry">
            <mxPoint x="911.25" y="120" as="sourcePoint" />
            <mxPoint x="1016.25" y="90" as="targetPoint" />
          </mxGeometry>
        </mxCell>
        <mxCell id="doyM2j3rQxWbV_fFkolo-71" value="" style="endArrow=none;html=1;rounded=0;entryX=0.5;entryY=1;entryDx=0;entryDy=0;exitX=0.5;exitY=0;exitDx=0;exitDy=0;edgeStyle=orthogonalEdgeStyle;fillColor=#dae8fc;strokeColor=#6c8ebf;" parent="1" source="doyM2j3rQxWbV_fFkolo-60" target="doyM2j3rQxWbV_fFkolo-62" edge="1">
          <mxGeometry width="50" height="50" relative="1" as="geometry">
            <mxPoint x="871.25" y="120" as="sourcePoint" />
            <mxPoint x="976.25" y="90" as="targetPoint" />
          </mxGeometry>
        </mxCell>
        <mxCell id="doyM2j3rQxWbV_fFkolo-72" value="" style="endArrow=none;html=1;rounded=0;entryX=0;entryY=0.5;entryDx=0;entryDy=0;exitX=1;exitY=0.5;exitDx=0;exitDy=0;edgeStyle=orthogonalEdgeStyle;fillColor=#dae8fc;strokeColor=#6c8ebf;" parent="1" source="doyM2j3rQxWbV_fFkolo-60" target="doyM2j3rQxWbV_fFkolo-67" edge="1">
          <mxGeometry width="50" height="50" relative="1" as="geometry">
            <mxPoint x="861.25" y="150" as="sourcePoint" />
            <mxPoint x="966.25" y="120" as="targetPoint" />
          </mxGeometry>
        </mxCell>
        <mxCell id="doyM2j3rQxWbV_fFkolo-73" value="" style="endArrow=none;html=1;rounded=0;entryX=0;entryY=0.5;entryDx=0;entryDy=0;exitX=1;exitY=0.5;exitDx=0;exitDy=0;edgeStyle=orthogonalEdgeStyle;fillColor=#dae8fc;strokeColor=#6c8ebf;" parent="1" source="doyM2j3rQxWbV_fFkolo-65" target="doyM2j3rQxWbV_fFkolo-60" edge="1">
          <mxGeometry width="50" height="50" relative="1" as="geometry">
            <mxPoint x="881.25" y="160" as="sourcePoint" />
            <mxPoint x="986.25" y="130" as="targetPoint" />
          </mxGeometry>
        </mxCell>
        <mxCell id="doyM2j3rQxWbV_fFkolo-74" value="Destinos" style="whiteSpace=wrap;html=1;align=center;fillColor=#f8cecc;strokeColor=#b85450;" parent="1" vertex="1">
          <mxGeometry x="616.25" y="670" width="60" height="40" as="geometry" />
        </mxCell>
        <mxCell id="doyM2j3rQxWbV_fFkolo-85" value="nombreEstablecimiento" style="ellipse;whiteSpace=wrap;html=1;align=center;fillColor=#f8cecc;strokeColor=#b85450;" parent="1" vertex="1">
          <mxGeometry x="492.5" y="730" width="140" height="40" as="geometry" />
        </mxCell>
        <mxCell id="doyM2j3rQxWbV_fFkolo-99" value="" style="endArrow=none;html=1;rounded=0;edgeStyle=orthogonalEdgeStyle;entryX=0;entryY=0.5;entryDx=0;entryDy=0;exitX=0.5;exitY=1;exitDx=0;exitDy=0;fillColor=#f8cecc;strokeColor=#b85450;" parent="1" source="doyM2j3rQxWbV_fFkolo-74" target="elpQOpRpPnPJ8Y7wqMyN-4" edge="1">
          <mxGeometry width="50" height="50" relative="1" as="geometry">
            <mxPoint x="510" y="760" as="sourcePoint" />
            <mxPoint x="670" y="750" as="targetPoint" />
          </mxGeometry>
        </mxCell>
        <mxCell id="doyM2j3rQxWbV_fFkolo-103" value="" style="endArrow=none;html=1;rounded=0;edgeStyle=orthogonalEdgeStyle;entryX=0.5;entryY=1;entryDx=0;entryDy=0;exitX=1;exitY=0.5;exitDx=0;exitDy=0;fillColor=#f8cecc;strokeColor=#b85450;" parent="1" source="doyM2j3rQxWbV_fFkolo-85" target="doyM2j3rQxWbV_fFkolo-74" edge="1">
          <mxGeometry width="50" height="50" relative="1" as="geometry">
            <mxPoint x="395" y="780" as="sourcePoint" />
            <mxPoint x="445" y="760" as="targetPoint" />
          </mxGeometry>
        </mxCell>
        <mxCell id="doyM2j3rQxWbV_fFkolo-106" value="Origenes" style="whiteSpace=wrap;html=1;align=center;fillColor=#fad7ac;strokeColor=#b46504;" parent="1" vertex="1">
          <mxGeometry x="616.25" y="560" width="60" height="40" as="geometry" />
        </mxCell>
        <mxCell id="doyM2j3rQxWbV_fFkolo-108" value="ciudad" style="ellipse;whiteSpace=wrap;html=1;align=center;" parent="1" vertex="1">
          <mxGeometry x="275" y="530" width="50" height="40" as="geometry" />
        </mxCell>
        <mxCell id="doyM2j3rQxWbV_fFkolo-109" value="estado" style="ellipse;whiteSpace=wrap;html=1;align=center;" parent="1" vertex="1">
          <mxGeometry x="461.25" y="505" width="50" height="40" as="geometry" />
        </mxCell>
        <mxCell id="doyM2j3rQxWbV_fFkolo-110" value="pais" style="ellipse;whiteSpace=wrap;html=1;align=center;" parent="1" vertex="1">
          <mxGeometry x="412.5" y="505" width="40" height="40" as="geometry" />
        </mxCell>
        <mxCell id="doyM2j3rQxWbV_fFkolo-111" value="CP" style="ellipse;whiteSpace=wrap;html=1;align=center;" parent="1" vertex="1">
          <mxGeometry x="240" y="625" width="30" height="30" as="geometry" />
        </mxCell>
        <mxCell id="doyM2j3rQxWbV_fFkolo-112" value="calle" style="ellipse;whiteSpace=wrap;html=1;align=center;" parent="1" vertex="1">
          <mxGeometry x="222.5" y="660" width="40" height="40" as="geometry" />
        </mxCell>
        <mxCell id="doyM2j3rQxWbV_fFkolo-113" value="noExterior" style="ellipse;whiteSpace=wrap;html=1;align=center;" parent="1" vertex="1">
          <mxGeometry x="335" y="505" width="70" height="40" as="geometry" />
        </mxCell>
        <mxCell id="doyM2j3rQxWbV_fFkolo-114" value="noInterior" style="ellipse;whiteSpace=wrap;html=1;align=center;" parent="1" vertex="1">
          <mxGeometry x="220" y="574" width="70" height="40" as="geometry" />
        </mxCell>
        <mxCell id="doyM2j3rQxWbV_fFkolo-115" value="nombreEscuela" style="ellipse;whiteSpace=wrap;html=1;align=center;fillColor=#fad7ac;strokeColor=#b46504;" parent="1" vertex="1">
          <mxGeometry x="661.25" y="600" width="140" height="40" as="geometry" />
        </mxCell>
        <mxCell id="doyM2j3rQxWbV_fFkolo-119" value="" style="endArrow=none;html=1;rounded=0;edgeStyle=orthogonalEdgeStyle;entryX=0;entryY=0.5;entryDx=0;entryDy=0;exitX=1;exitY=0.5;exitDx=0;exitDy=0;fillColor=#fad7ac;strokeColor=#b46504;" parent="1" source="doyM2j3rQxWbV_fFkolo-106" target="elpQOpRpPnPJ8Y7wqMyN-5" edge="1">
          <mxGeometry width="50" height="50" relative="1" as="geometry">
            <mxPoint x="772.5" y="760" as="sourcePoint" />
            <mxPoint x="696.25" y="550" as="targetPoint" />
          </mxGeometry>
        </mxCell>
        <mxCell id="doyM2j3rQxWbV_fFkolo-123" value="" style="endArrow=none;html=1;rounded=0;edgeStyle=orthogonalEdgeStyle;exitX=0;exitY=0.5;exitDx=0;exitDy=0;fillColor=#fad7ac;strokeColor=#b46504;entryX=0.5;entryY=1;entryDx=0;entryDy=0;" parent="1" source="doyM2j3rQxWbV_fFkolo-115" target="doyM2j3rQxWbV_fFkolo-106" edge="1">
          <mxGeometry width="50" height="50" relative="1" as="geometry">
            <mxPoint x="787.5" y="790" as="sourcePoint" />
            <mxPoint x="676.25" y="670" as="targetPoint" />
          </mxGeometry>
        </mxCell>
        <mxCell id="doyM2j3rQxWbV_fFkolo-125" value="DetallesViaje" style="whiteSpace=wrap;html=1;align=center;fillColor=#f5f5f5;strokeColor=#666666;fontColor=#333333;" parent="1" vertex="1">
          <mxGeometry x="501.25" y="335" width="80" height="40" as="geometry" />
        </mxCell>
        <mxCell id="doyM2j3rQxWbV_fFkolo-128" value="Viajes" style="whiteSpace=wrap;html=1;align=center;fillColor=#bac8d3;strokeColor=#23445d;" parent="1" vertex="1">
          <mxGeometry x="912.5" y="300" width="100" height="40" as="geometry" />
        </mxCell>
        <mxCell id="doyM2j3rQxWbV_fFkolo-131" value="1:1" style="shape=rhombus;perimeter=rhombusPerimeter;whiteSpace=wrap;html=1;align=center;" parent="1" vertex="1">
          <mxGeometry x="790" y="300" width="50" height="40" as="geometry" />
        </mxCell>
        <mxCell id="doyM2j3rQxWbV_fFkolo-140" value="1:M" style="shape=rhombus;perimeter=rhombusPerimeter;whiteSpace=wrap;html=1;align=center;" parent="1" vertex="1">
          <mxGeometry x="245" y="335" width="50" height="40" as="geometry" />
        </mxCell>
        <mxCell id="doyM2j3rQxWbV_fFkolo-142" value="" style="edgeStyle=orthogonalEdgeStyle;fontSize=12;html=1;endArrow=ERmandOne;rounded=0;entryX=0;entryY=0.5;entryDx=0;entryDy=0;fillColor=#f5f5f5;strokeColor=#666666;exitX=1;exitY=0.5;exitDx=0;exitDy=0;" parent="1" source="doyM2j3rQxWbV_fFkolo-140" target="doyM2j3rQxWbV_fFkolo-125" edge="1">
          <mxGeometry width="100" height="100" relative="1" as="geometry">
            <mxPoint x="270" y="240" as="sourcePoint" />
            <mxPoint x="210" y="150" as="targetPoint" />
          </mxGeometry>
        </mxCell>
        <mxCell id="doyM2j3rQxWbV_fFkolo-146" value="idViaje" style="ellipse;whiteSpace=wrap;html=1;align=center;fontStyle=4;fillColor=#bac8d3;strokeColor=#23445d;" parent="1" vertex="1">
          <mxGeometry x="1101.25" y="200" width="50" height="40" as="geometry" />
        </mxCell>
        <mxCell id="doyM2j3rQxWbV_fFkolo-148" value="nombreViaje" style="ellipse;whiteSpace=wrap;html=1;align=center;fillColor=#bac8d3;strokeColor=#23445d;" parent="1" vertex="1">
          <mxGeometry x="1062.5" y="370" width="80" height="40" as="geometry" />
        </mxCell>
        <mxCell id="doyM2j3rQxWbV_fFkolo-149" value="fechaInicio" style="ellipse;whiteSpace=wrap;html=1;align=center;fillColor=#bac8d3;strokeColor=#23445d;" parent="1" vertex="1">
          <mxGeometry x="1067.5" y="320" width="70" height="40" as="geometry" />
        </mxCell>
        <mxCell id="doyM2j3rQxWbV_fFkolo-150" value="fechaFin" style="ellipse;whiteSpace=wrap;html=1;align=center;fillColor=#bac8d3;strokeColor=#23445d;" parent="1" vertex="1">
          <mxGeometry x="1082.5" y="275" width="60" height="40" as="geometry" />
        </mxCell>
        <mxCell id="doyM2j3rQxWbV_fFkolo-151" value="costoTotal" style="ellipse;whiteSpace=wrap;html=1;align=center;fillColor=#f5f5f5;strokeColor=#666666;fontColor=#333333;" parent="1" vertex="1">
          <mxGeometry x="411.25" y="375" width="70" height="40" as="geometry" />
        </mxCell>
        <mxCell id="doyM2j3rQxWbV_fFkolo-152" value="descripcion" style="ellipse;whiteSpace=wrap;html=1;align=center;fillColor=#bac8d3;strokeColor=#23445d;" parent="1" vertex="1">
          <mxGeometry x="1011.25" y="180" width="70" height="40" as="geometry" />
        </mxCell>
        <mxCell id="doyM2j3rQxWbV_fFkolo-159" value="" style="endArrow=none;html=1;rounded=0;edgeStyle=orthogonalEdgeStyle;entryX=1;entryY=0.5;entryDx=0;entryDy=0;exitX=0.25;exitY=1;exitDx=0;exitDy=0;fillColor=#f5f5f5;strokeColor=#666666;" parent="1" source="doyM2j3rQxWbV_fFkolo-125" target="doyM2j3rQxWbV_fFkolo-151" edge="1">
          <mxGeometry width="50" height="50" relative="1" as="geometry">
            <mxPoint x="541.25" y="565" as="sourcePoint" />
            <mxPoint x="601.25" y="545" as="targetPoint" />
          </mxGeometry>
        </mxCell>
        <mxCell id="doyM2j3rQxWbV_fFkolo-160" value="" style="endArrow=none;html=1;rounded=0;edgeStyle=orthogonalEdgeStyle;entryX=0.5;entryY=0;entryDx=0;entryDy=0;exitX=0.5;exitY=1;exitDx=0;exitDy=0;fillColor=#bac8d3;strokeColor=#23445d;" parent="1" source="doyM2j3rQxWbV_fFkolo-146" target="doyM2j3rQxWbV_fFkolo-128" edge="1">
          <mxGeometry width="50" height="50" relative="1" as="geometry">
            <mxPoint x="917.5" y="390" as="sourcePoint" />
            <mxPoint x="977.5" y="370" as="targetPoint" />
          </mxGeometry>
        </mxCell>
        <mxCell id="doyM2j3rQxWbV_fFkolo-161" value="" style="endArrow=none;html=1;rounded=0;edgeStyle=orthogonalEdgeStyle;entryX=1;entryY=0.75;entryDx=0;entryDy=0;exitX=0;exitY=0.5;exitDx=0;exitDy=0;fillColor=#bac8d3;strokeColor=#23445d;" parent="1" source="doyM2j3rQxWbV_fFkolo-148" target="doyM2j3rQxWbV_fFkolo-128" edge="1">
          <mxGeometry width="50" height="50" relative="1" as="geometry">
            <mxPoint x="957.5" y="400" as="sourcePoint" />
            <mxPoint x="1017.5" y="380" as="targetPoint" />
            <Array as="points">
              <mxPoint x="1032.5" y="390" />
              <mxPoint x="1032.5" y="330" />
            </Array>
          </mxGeometry>
        </mxCell>
        <mxCell id="doyM2j3rQxWbV_fFkolo-162" value="" style="endArrow=none;html=1;rounded=0;edgeStyle=orthogonalEdgeStyle;entryX=1;entryY=0.5;entryDx=0;entryDy=0;exitX=0;exitY=0.5;exitDx=0;exitDy=0;fillColor=#bac8d3;strokeColor=#23445d;" parent="1" source="doyM2j3rQxWbV_fFkolo-149" target="doyM2j3rQxWbV_fFkolo-128" edge="1">
          <mxGeometry width="50" height="50" relative="1" as="geometry">
            <mxPoint x="997.5" y="390" as="sourcePoint" />
            <mxPoint x="1057.5" y="370" as="targetPoint" />
          </mxGeometry>
        </mxCell>
        <mxCell id="doyM2j3rQxWbV_fFkolo-163" value="" style="endArrow=none;html=1;rounded=0;edgeStyle=orthogonalEdgeStyle;entryX=1;entryY=0.25;entryDx=0;entryDy=0;exitX=0;exitY=0.5;exitDx=0;exitDy=0;fillColor=#bac8d3;strokeColor=#23445d;" parent="1" source="doyM2j3rQxWbV_fFkolo-150" target="doyM2j3rQxWbV_fFkolo-128" edge="1">
          <mxGeometry width="50" height="50" relative="1" as="geometry">
            <mxPoint x="987.5" y="370" as="sourcePoint" />
            <mxPoint x="1047.5" y="350" as="targetPoint" />
          </mxGeometry>
        </mxCell>
        <mxCell id="doyM2j3rQxWbV_fFkolo-164" value="" style="endArrow=none;html=1;rounded=0;edgeStyle=orthogonalEdgeStyle;entryX=0.5;entryY=0;entryDx=0;entryDy=0;exitX=0.5;exitY=1;exitDx=0;exitDy=0;fillColor=#bac8d3;strokeColor=#23445d;" parent="1" source="doyM2j3rQxWbV_fFkolo-152" target="doyM2j3rQxWbV_fFkolo-128" edge="1">
          <mxGeometry width="50" height="50" relative="1" as="geometry">
            <mxPoint x="1047.5" y="380" as="sourcePoint" />
            <mxPoint x="1107.5" y="360" as="targetPoint" />
          </mxGeometry>
        </mxCell>
        <mxCell id="doyM2j3rQxWbV_fFkolo-165" value="idDetalle" style="ellipse;whiteSpace=wrap;html=1;align=center;fontStyle=4;fillColor=#f5f5f5;strokeColor=#666666;fontColor=#333333;" parent="1" vertex="1">
          <mxGeometry x="421.25" y="265" width="60" height="40" as="geometry" />
        </mxCell>
        <mxCell id="doyM2j3rQxWbV_fFkolo-166" value="&lt;span style=&quot;border-bottom: 1px dotted&quot;&gt;idViaje&lt;/span&gt;" style="ellipse;whiteSpace=wrap;html=1;align=center;fillColor=#f5f5f5;strokeColor=#666666;fontColor=#333333;" parent="1" vertex="1">
          <mxGeometry x="601.25" y="265" width="60" height="40" as="geometry" />
        </mxCell>
        <mxCell id="doyM2j3rQxWbV_fFkolo-167" value="&lt;span style=&quot;border-bottom: 1px dotted&quot;&gt;idEstudiante&lt;/span&gt;" style="ellipse;whiteSpace=wrap;html=1;align=center;fillColor=#f5f5f5;strokeColor=#666666;fontColor=#333333;" parent="1" vertex="1">
          <mxGeometry x="416.25" y="425" width="85" height="40" as="geometry" />
        </mxCell>
        <mxCell id="doyM2j3rQxWbV_fFkolo-168" value="estadoParticipacion" style="ellipse;whiteSpace=wrap;html=1;align=center;fillColor=#f5f5f5;strokeColor=#666666;fontColor=#333333;" parent="1" vertex="1">
          <mxGeometry x="481.25" y="235" width="120" height="40" as="geometry" />
        </mxCell>
        <mxCell id="doyM2j3rQxWbV_fFkolo-169" value="Comentarios" style="ellipse;whiteSpace=wrap;html=1;align=center;fillColor=#f5f5f5;strokeColor=#666666;fontColor=#333333;" parent="1" vertex="1">
          <mxGeometry x="626.25" y="395" width="80" height="40" as="geometry" />
        </mxCell>
        <mxCell id="doyM2j3rQxWbV_fFkolo-170" value="" style="endArrow=none;html=1;rounded=0;edgeStyle=orthogonalEdgeStyle;entryX=0.25;entryY=1;entryDx=0;entryDy=0;exitX=1;exitY=0.5;exitDx=0;exitDy=0;fillColor=#f5f5f5;strokeColor=#666666;" parent="1" source="doyM2j3rQxWbV_fFkolo-167" target="doyM2j3rQxWbV_fFkolo-125" edge="1">
          <mxGeometry width="50" height="50" relative="1" as="geometry">
            <mxPoint x="501.25" y="375" as="sourcePoint" />
            <mxPoint x="551.25" y="325" as="targetPoint" />
          </mxGeometry>
        </mxCell>
        <mxCell id="doyM2j3rQxWbV_fFkolo-171" value="" style="endArrow=none;html=1;rounded=0;edgeStyle=orthogonalEdgeStyle;exitX=0.5;exitY=0;exitDx=0;exitDy=0;fillColor=#f5f5f5;strokeColor=#666666;entryX=0.75;entryY=1;entryDx=0;entryDy=0;" parent="1" source="doyM2j3rQxWbV_fFkolo-169" target="doyM2j3rQxWbV_fFkolo-125" edge="1">
          <mxGeometry width="50" height="50" relative="1" as="geometry">
            <mxPoint x="471.25" y="385" as="sourcePoint" />
            <mxPoint x="521.25" y="395" as="targetPoint" />
          </mxGeometry>
        </mxCell>
        <mxCell id="doyM2j3rQxWbV_fFkolo-172" value="" style="endArrow=none;html=1;rounded=0;edgeStyle=orthogonalEdgeStyle;entryX=0;entryY=0.5;entryDx=0;entryDy=0;exitX=0.5;exitY=0;exitDx=0;exitDy=0;fillColor=#f5f5f5;strokeColor=#666666;" parent="1" source="doyM2j3rQxWbV_fFkolo-125" target="doyM2j3rQxWbV_fFkolo-166" edge="1">
          <mxGeometry width="50" height="50" relative="1" as="geometry">
            <mxPoint x="531.25" y="325" as="sourcePoint" />
            <mxPoint x="606.25" y="305" as="targetPoint" />
            <Array as="points">
              <mxPoint x="541.25" y="305" />
              <mxPoint x="571.25" y="305" />
              <mxPoint x="571.25" y="285" />
            </Array>
          </mxGeometry>
        </mxCell>
        <mxCell id="doyM2j3rQxWbV_fFkolo-174" value="" style="endArrow=none;html=1;rounded=0;edgeStyle=orthogonalEdgeStyle;entryX=1;entryY=0.5;entryDx=0;entryDy=0;exitX=0.5;exitY=0;exitDx=0;exitDy=0;fillColor=#f5f5f5;strokeColor=#666666;" parent="1" source="doyM2j3rQxWbV_fFkolo-125" target="doyM2j3rQxWbV_fFkolo-165" edge="1">
          <mxGeometry width="50" height="50" relative="1" as="geometry">
            <mxPoint x="571.25" y="305" as="sourcePoint" />
            <mxPoint x="646.25" y="285" as="targetPoint" />
            <Array as="points">
              <mxPoint x="541.25" y="305" />
              <mxPoint x="511.25" y="305" />
              <mxPoint x="511.25" y="285" />
            </Array>
          </mxGeometry>
        </mxCell>
        <mxCell id="doyM2j3rQxWbV_fFkolo-176" value="" style="endArrow=none;html=1;rounded=0;edgeStyle=orthogonalEdgeStyle;entryX=0.5;entryY=1;entryDx=0;entryDy=0;exitX=0.5;exitY=0;exitDx=0;exitDy=0;fillColor=#f5f5f5;strokeColor=#666666;" parent="1" source="doyM2j3rQxWbV_fFkolo-125" target="doyM2j3rQxWbV_fFkolo-168" edge="1">
          <mxGeometry width="50" height="50" relative="1" as="geometry">
            <mxPoint x="501.25" y="345" as="sourcePoint" />
            <mxPoint x="551.25" y="295" as="targetPoint" />
          </mxGeometry>
        </mxCell>
        <mxCell id="doyM2j3rQxWbV_fFkolo-178" value="" style="edgeStyle=orthogonalEdgeStyle;fontSize=12;html=1;endArrow=ERmandOne;rounded=0;entryX=1;entryY=0.75;entryDx=0;entryDy=0;exitX=0;exitY=0.5;exitDx=0;exitDy=0;fillColor=#f5f5f5;strokeColor=#666666;" parent="1" source="doyM2j3rQxWbV_fFkolo-131" target="doyM2j3rQxWbV_fFkolo-125" edge="1">
          <mxGeometry width="100" height="100" relative="1" as="geometry">
            <mxPoint x="460" y="390" as="sourcePoint" />
            <mxPoint x="560" y="290" as="targetPoint" />
            <Array as="points">
              <mxPoint x="720" y="320" />
              <mxPoint x="720" y="365" />
            </Array>
          </mxGeometry>
        </mxCell>
        <mxCell id="doyM2j3rQxWbV_fFkolo-179" value="" style="edgeStyle=orthogonalEdgeStyle;fontSize=12;html=1;endArrow=ERmany;rounded=0;entryX=0.5;entryY=1;entryDx=0;entryDy=0;exitX=0;exitY=0.5;exitDx=0;exitDy=0;fillColor=#e1d5e7;strokeColor=#9673a6;" parent="1" source="doyM2j3rQxWbV_fFkolo-140" target="doyM2j3rQxWbV_fFkolo-1" edge="1">
          <mxGeometry width="100" height="100" relative="1" as="geometry">
            <mxPoint x="290" y="280" as="sourcePoint" />
            <mxPoint x="220" y="200" as="targetPoint" />
          </mxGeometry>
        </mxCell>
        <mxCell id="doyM2j3rQxWbV_fFkolo-180" value="" style="edgeStyle=orthogonalEdgeStyle;fontSize=12;html=1;endArrow=ERmandOne;rounded=0;exitX=1;exitY=0.5;exitDx=0;exitDy=0;fillColor=#bac8d3;strokeColor=#23445d;entryX=0;entryY=0.5;entryDx=0;entryDy=0;" parent="1" source="doyM2j3rQxWbV_fFkolo-131" target="doyM2j3rQxWbV_fFkolo-128" edge="1">
          <mxGeometry width="100" height="100" relative="1" as="geometry">
            <mxPoint x="525" y="490" as="sourcePoint" />
            <mxPoint x="870" y="270" as="targetPoint" />
          </mxGeometry>
        </mxCell>
        <mxCell id="jSaFfHmJqT2xuIT8IOil-1" value="1:M" style="shape=rhombus;perimeter=rhombusPerimeter;whiteSpace=wrap;html=1;align=center;" parent="1" vertex="1">
          <mxGeometry x="805" y="220" width="50" height="40" as="geometry" />
        </mxCell>
        <mxCell id="jSaFfHmJqT2xuIT8IOil-2" value="" style="edgeStyle=orthogonalEdgeStyle;fontSize=12;html=1;endArrow=ERmandOne;rounded=0;exitX=0.5;exitY=0;exitDx=0;exitDy=0;entryX=0.5;entryY=1;entryDx=0;entryDy=0;fillColor=#dae8fc;strokeColor=#6c8ebf;" parent="1" source="jSaFfHmJqT2xuIT8IOil-1" target="doyM2j3rQxWbV_fFkolo-60" edge="1">
          <mxGeometry width="100" height="100" relative="1" as="geometry">
            <mxPoint x="740" y="330" as="sourcePoint" />
            <mxPoint x="880" y="210" as="targetPoint" />
          </mxGeometry>
        </mxCell>
        <mxCell id="jSaFfHmJqT2xuIT8IOil-3" value="" style="edgeStyle=orthogonalEdgeStyle;fontSize=12;html=1;endArrow=ERmany;rounded=0;entryX=1;entryY=0.25;entryDx=0;entryDy=0;exitX=0;exitY=0.5;exitDx=0;exitDy=0;fillColor=#f5f5f5;strokeColor=#666666;" parent="1" source="jSaFfHmJqT2xuIT8IOil-1" target="doyM2j3rQxWbV_fFkolo-125" edge="1">
          <mxGeometry width="100" height="100" relative="1" as="geometry">
            <mxPoint x="740" y="330" as="sourcePoint" />
            <mxPoint x="840" y="230" as="targetPoint" />
          </mxGeometry>
        </mxCell>
        <mxCell id="jSaFfHmJqT2xuIT8IOil-4" value="Lugar" style="whiteSpace=wrap;html=1;align=center;" parent="1" vertex="1">
          <mxGeometry x="355" y="620" width="50" height="40" as="geometry" />
        </mxCell>
        <mxCell id="jSaFfHmJqT2xuIT8IOil-5" value="1:1" style="shape=rhombus;perimeter=rhombusPerimeter;whiteSpace=wrap;html=1;align=center;" parent="1" vertex="1">
          <mxGeometry x="846.25" y="455" width="50" height="40" as="geometry" />
        </mxCell>
        <mxCell id="jSaFfHmJqT2xuIT8IOil-6" value="" style="edgeStyle=orthogonalEdgeStyle;fontSize=12;html=1;endArrow=ERmandOne;rounded=0;exitX=0.5;exitY=0;exitDx=0;exitDy=0;fillColor=#bac8d3;strokeColor=#23445d;entryX=0.25;entryY=1;entryDx=0;entryDy=0;" parent="1" source="jSaFfHmJqT2xuIT8IOil-5" target="doyM2j3rQxWbV_fFkolo-128" edge="1">
          <mxGeometry width="100" height="100" relative="1" as="geometry">
            <mxPoint x="765" y="330" as="sourcePoint" />
            <mxPoint x="940" y="290" as="targetPoint" />
          </mxGeometry>
        </mxCell>
        <mxCell id="jSaFfHmJqT2xuIT8IOil-7" value="" style="edgeStyle=orthogonalEdgeStyle;fontSize=12;html=1;endArrow=ERmandOne;rounded=0;exitX=0;exitY=0.5;exitDx=0;exitDy=0;entryX=0.5;entryY=0;entryDx=0;entryDy=0;fillColor=#fad7ac;strokeColor=#b46504;" parent="1" source="jSaFfHmJqT2xuIT8IOil-5" target="doyM2j3rQxWbV_fFkolo-106" edge="1">
          <mxGeometry width="100" height="100" relative="1" as="geometry">
            <mxPoint x="666.25" y="545" as="sourcePoint" />
            <mxPoint x="891.25" y="515" as="targetPoint" />
          </mxGeometry>
        </mxCell>
        <mxCell id="jSaFfHmJqT2xuIT8IOil-8" value="" style="endArrow=none;html=1;rounded=0;edgeStyle=orthogonalEdgeStyle;exitX=0.5;exitY=0;exitDx=0;exitDy=0;entryX=0.5;entryY=1;entryDx=0;entryDy=0;" parent="1" source="jSaFfHmJqT2xuIT8IOil-4" target="doyM2j3rQxWbV_fFkolo-113" edge="1">
          <mxGeometry width="50" height="50" relative="1" as="geometry">
            <mxPoint x="475" y="654" as="sourcePoint" />
            <mxPoint x="465" y="560" as="targetPoint" />
          </mxGeometry>
        </mxCell>
        <mxCell id="jSaFfHmJqT2xuIT8IOil-9" value="" style="endArrow=none;html=1;rounded=0;edgeStyle=orthogonalEdgeStyle;entryX=0.5;entryY=1;entryDx=0;entryDy=0;exitX=0.5;exitY=0;exitDx=0;exitDy=0;" parent="1" source="jSaFfHmJqT2xuIT8IOil-4" target="doyM2j3rQxWbV_fFkolo-110" edge="1">
          <mxGeometry width="50" height="50" relative="1" as="geometry">
            <mxPoint x="415" y="650" as="sourcePoint" />
            <mxPoint x="470" y="584" as="targetPoint" />
          </mxGeometry>
        </mxCell>
        <mxCell id="jSaFfHmJqT2xuIT8IOil-10" value="" style="endArrow=none;html=1;rounded=0;edgeStyle=orthogonalEdgeStyle;entryX=0.5;entryY=1;entryDx=0;entryDy=0;exitX=0.5;exitY=0;exitDx=0;exitDy=0;" parent="1" source="jSaFfHmJqT2xuIT8IOil-4" target="doyM2j3rQxWbV_fFkolo-109" edge="1">
          <mxGeometry width="50" height="50" relative="1" as="geometry">
            <mxPoint x="415" y="650" as="sourcePoint" />
            <mxPoint x="515" y="590" as="targetPoint" />
          </mxGeometry>
        </mxCell>
        <mxCell id="jSaFfHmJqT2xuIT8IOil-11" value="" style="endArrow=none;html=1;rounded=0;edgeStyle=orthogonalEdgeStyle;entryX=1;entryY=0.5;entryDx=0;entryDy=0;exitX=0;exitY=0.5;exitDx=0;exitDy=0;" parent="1" source="jSaFfHmJqT2xuIT8IOil-4" target="doyM2j3rQxWbV_fFkolo-112" edge="1">
          <mxGeometry width="50" height="50" relative="1" as="geometry">
            <mxPoint x="425" y="660" as="sourcePoint" />
            <mxPoint x="525" y="600" as="targetPoint" />
          </mxGeometry>
        </mxCell>
        <mxCell id="jSaFfHmJqT2xuIT8IOil-12" value="" style="endArrow=none;html=1;rounded=0;edgeStyle=orthogonalEdgeStyle;entryX=0;entryY=0.5;entryDx=0;entryDy=0;exitX=1;exitY=0.5;exitDx=0;exitDy=0;" parent="1" source="doyM2j3rQxWbV_fFkolo-108" target="jSaFfHmJqT2xuIT8IOil-4" edge="1">
          <mxGeometry width="50" height="50" relative="1" as="geometry">
            <mxPoint x="230" y="710" as="sourcePoint" />
            <mxPoint x="330" y="650" as="targetPoint" />
          </mxGeometry>
        </mxCell>
        <mxCell id="jSaFfHmJqT2xuIT8IOil-13" value="" style="endArrow=none;html=1;rounded=0;edgeStyle=orthogonalEdgeStyle;entryX=1;entryY=0.5;entryDx=0;entryDy=0;exitX=0;exitY=0.5;exitDx=0;exitDy=0;" parent="1" source="jSaFfHmJqT2xuIT8IOil-4" target="doyM2j3rQxWbV_fFkolo-114" edge="1">
          <mxGeometry width="50" height="50" relative="1" as="geometry">
            <mxPoint x="445" y="680" as="sourcePoint" />
            <mxPoint x="545" y="620" as="targetPoint" />
          </mxGeometry>
        </mxCell>
        <mxCell id="jSaFfHmJqT2xuIT8IOil-14" value="" style="endArrow=none;html=1;rounded=0;edgeStyle=orthogonalEdgeStyle;entryX=1;entryY=0.5;entryDx=0;entryDy=0;exitX=0;exitY=0.5;exitDx=0;exitDy=0;" parent="1" source="jSaFfHmJqT2xuIT8IOil-4" target="doyM2j3rQxWbV_fFkolo-111" edge="1">
          <mxGeometry width="50" height="50" relative="1" as="geometry">
            <mxPoint x="455" y="690" as="sourcePoint" />
            <mxPoint x="555" y="630" as="targetPoint" />
          </mxGeometry>
        </mxCell>
        <mxCell id="jSaFfHmJqT2xuIT8IOil-16" value="" style="triangle;whiteSpace=wrap;html=1;rotation=0;" parent="1" vertex="1">
          <mxGeometry x="441.25" y="630" width="20" height="20" as="geometry" />
        </mxCell>
        <mxCell id="jSaFfHmJqT2xuIT8IOil-17" value="" style="endArrow=none;html=1;rounded=0;edgeStyle=orthogonalEdgeStyle;entryX=0;entryY=0.5;entryDx=0;entryDy=0;exitX=1;exitY=0.5;exitDx=0;exitDy=0;" parent="1" source="jSaFfHmJqT2xuIT8IOil-4" target="jSaFfHmJqT2xuIT8IOil-16" edge="1">
          <mxGeometry width="50" height="50" relative="1" as="geometry">
            <mxPoint x="957.5" y="530" as="sourcePoint" />
            <mxPoint x="872.5" y="530" as="targetPoint" />
          </mxGeometry>
        </mxCell>
        <mxCell id="jSaFfHmJqT2xuIT8IOil-18" value="" style="endArrow=none;html=1;rounded=0;edgeStyle=orthogonalEdgeStyle;entryX=1;entryY=0.5;entryDx=0;entryDy=0;exitX=0;exitY=0.5;exitDx=0;exitDy=0;fillColor=#f8cecc;strokeColor=#b85450;" parent="1" source="doyM2j3rQxWbV_fFkolo-74" target="jSaFfHmJqT2xuIT8IOil-16" edge="1">
          <mxGeometry width="50" height="50" relative="1" as="geometry">
            <mxPoint x="528.75" y="730" as="sourcePoint" />
            <mxPoint x="553.75" y="730" as="targetPoint" />
          </mxGeometry>
        </mxCell>
        <mxCell id="jSaFfHmJqT2xuIT8IOil-19" value="" style="endArrow=none;html=1;rounded=0;edgeStyle=orthogonalEdgeStyle;entryX=1;entryY=0.5;entryDx=0;entryDy=0;exitX=0;exitY=0.5;exitDx=0;exitDy=0;fillColor=#fad7ac;strokeColor=#b46504;" parent="1" source="doyM2j3rQxWbV_fFkolo-106" target="jSaFfHmJqT2xuIT8IOil-16" edge="1">
          <mxGeometry width="50" height="50" relative="1" as="geometry">
            <mxPoint x="630" y="515" as="sourcePoint" />
            <mxPoint x="430" y="635" as="targetPoint" />
          </mxGeometry>
        </mxCell>
        <mxCell id="KxAFxlYHHWwAgCI6OglR-1" value="&lt;span style=&quot;border-bottom: 1px dotted&quot;&gt;idDocente&lt;/span&gt;" style="ellipse;whiteSpace=wrap;html=1;align=center;fillColor=#f5f5f5;strokeColor=#666666;fontColor=#333333;" parent="1" vertex="1">
          <mxGeometry x="531.25" y="435" width="85" height="40" as="geometry" />
        </mxCell>
        <mxCell id="KxAFxlYHHWwAgCI6OglR-2" value="" style="endArrow=none;html=1;rounded=0;edgeStyle=orthogonalEdgeStyle;exitX=0.5;exitY=0;exitDx=0;exitDy=0;fillColor=#f5f5f5;strokeColor=#666666;entryX=0.5;entryY=1;entryDx=0;entryDy=0;" parent="1" source="KxAFxlYHHWwAgCI6OglR-1" target="doyM2j3rQxWbV_fFkolo-125" edge="1">
          <mxGeometry width="50" height="50" relative="1" as="geometry">
            <mxPoint x="676.25" y="405" as="sourcePoint" />
            <mxPoint x="571.25" y="385" as="targetPoint" />
          </mxGeometry>
        </mxCell>
        <mxCell id="KGBOiwHzeSyv4i2mlVGR-1" value="&lt;span style=&quot;border-bottom: 1px dotted&quot;&gt;idOrigen&lt;/span&gt;" style="ellipse;whiteSpace=wrap;html=1;align=center;fillColor=#bac8d3;strokeColor=#23445d;" parent="1" vertex="1">
          <mxGeometry x="932.5" y="180" width="60" height="40" as="geometry" />
        </mxCell>
        <mxCell id="KGBOiwHzeSyv4i2mlVGR-2" value="" style="endArrow=none;html=1;rounded=0;edgeStyle=orthogonalEdgeStyle;entryX=0.5;entryY=0;entryDx=0;entryDy=0;exitX=0.5;exitY=1;exitDx=0;exitDy=0;fillColor=#bac8d3;strokeColor=#23445d;" parent="1" source="KGBOiwHzeSyv4i2mlVGR-1" target="doyM2j3rQxWbV_fFkolo-128" edge="1">
          <mxGeometry width="50" height="50" relative="1" as="geometry">
            <mxPoint x="1042.5" y="240" as="sourcePoint" />
            <mxPoint x="1012.5" y="320" as="targetPoint" />
          </mxGeometry>
        </mxCell>
        <mxCell id="mUJ9NvNeIMixgYwaFpF6-1" value="&lt;span style=&quot;border-bottom: 1px dotted&quot;&gt;idDestino&lt;/span&gt;" style="ellipse;whiteSpace=wrap;html=1;align=center;fillColor=#bac8d3;strokeColor=#23445d;" parent="1" vertex="1">
          <mxGeometry x="871.25" y="200" width="60" height="40" as="geometry" />
        </mxCell>
        <mxCell id="mUJ9NvNeIMixgYwaFpF6-2" value="" style="endArrow=none;html=1;rounded=0;edgeStyle=orthogonalEdgeStyle;entryX=0.5;entryY=0;entryDx=0;entryDy=0;exitX=0.5;exitY=1;exitDx=0;exitDy=0;fillColor=#bac8d3;strokeColor=#23445d;" parent="1" source="mUJ9NvNeIMixgYwaFpF6-1" target="doyM2j3rQxWbV_fFkolo-128" edge="1">
          <mxGeometry width="50" height="50" relative="1" as="geometry">
            <mxPoint x="950" y="230" as="sourcePoint" />
            <mxPoint x="950" y="310" as="targetPoint" />
          </mxGeometry>
        </mxCell>
        <mxCell id="mUJ9NvNeIMixgYwaFpF6-3" value="" style="edgeStyle=orthogonalEdgeStyle;fontSize=12;html=1;endArrow=ERmandOne;rounded=0;exitX=0.5;exitY=1;exitDx=0;exitDy=0;entryX=1;entryY=0.5;entryDx=0;entryDy=0;fillColor=#fad9d5;strokeColor=#ae4132;" parent="1" source="mUJ9NvNeIMixgYwaFpF6-4" target="doyM2j3rQxWbV_fFkolo-74" edge="1">
          <mxGeometry width="100" height="100" relative="1" as="geometry">
            <mxPoint x="970" y="550" as="sourcePoint" />
            <mxPoint x="880" y="605" as="targetPoint" />
          </mxGeometry>
        </mxCell>
        <mxCell id="mUJ9NvNeIMixgYwaFpF6-4" value="1:1" style="shape=rhombus;perimeter=rhombusPerimeter;whiteSpace=wrap;html=1;align=center;" parent="1" vertex="1">
          <mxGeometry x="951.25" y="455" width="50" height="40" as="geometry" />
        </mxCell>
        <mxCell id="mUJ9NvNeIMixgYwaFpF6-5" value="" style="edgeStyle=orthogonalEdgeStyle;fontSize=12;html=1;endArrow=ERmandOne;rounded=0;exitX=0.5;exitY=0;exitDx=0;exitDy=0;fillColor=#bac8d3;strokeColor=#23445d;entryX=0.75;entryY=1;entryDx=0;entryDy=0;" parent="1" source="mUJ9NvNeIMixgYwaFpF6-4" target="doyM2j3rQxWbV_fFkolo-128" edge="1">
          <mxGeometry width="100" height="100" relative="1" as="geometry">
            <mxPoint x="970" y="505" as="sourcePoint" />
            <mxPoint x="1052" y="390" as="targetPoint" />
          </mxGeometry>
        </mxCell>
        <mxCell id="elpQOpRpPnPJ8Y7wqMyN-2" value="idLugar" style="ellipse;whiteSpace=wrap;html=1;align=center;fontStyle=4;" vertex="1" parent="1">
          <mxGeometry x="255" y="700" width="70" height="40" as="geometry" />
        </mxCell>
        <mxCell id="elpQOpRpPnPJ8Y7wqMyN-3" value="" style="endArrow=none;html=1;rounded=0;edgeStyle=orthogonalEdgeStyle;entryX=1;entryY=0.5;entryDx=0;entryDy=0;exitX=0.5;exitY=1;exitDx=0;exitDy=0;" edge="1" parent="1" source="jSaFfHmJqT2xuIT8IOil-4" target="elpQOpRpPnPJ8Y7wqMyN-2">
          <mxGeometry width="50" height="50" relative="1" as="geometry">
            <mxPoint x="412" y="670" as="sourcePoint" />
            <mxPoint x="320" y="710" as="targetPoint" />
          </mxGeometry>
        </mxCell>
        <mxCell id="elpQOpRpPnPJ8Y7wqMyN-4" value="&lt;span style=&quot;border-bottom: 1px dotted&quot;&gt;idDestino&lt;/span&gt;" style="ellipse;whiteSpace=wrap;html=1;align=center;fillColor=#fad9d5;strokeColor=#ae4132;" vertex="1" parent="1">
          <mxGeometry x="670" y="730" width="80" height="40" as="geometry" />
        </mxCell>
        <mxCell id="elpQOpRpPnPJ8Y7wqMyN-5" value="&lt;span style=&quot;border-bottom: 1px dotted&quot;&gt;idOrigen&lt;/span&gt;" style="ellipse;whiteSpace=wrap;html=1;align=center;fillColor=#fad7ac;strokeColor=#b46504;" vertex="1" parent="1">
          <mxGeometry x="706.25" y="545" width="80" height="40" as="geometry" />
        </mxCell>
      </root>
    </mxGraphModel>
  </diagram>
</mxfile>
